<svg width="30" height="30" viewBox="0 0 30 30" fill="none" xmlns="http://www.w3.org/2000/svg">
<path d="M25.3125 15.1757H14.8242V4.68741C14.8242 4.55851 14.7188 4.45304 14.5899 4.45304H13.8281C12.2892 4.45052 10.7649 4.75232 9.34301 5.34109C7.92112 5.92986 6.62968 6.79397 5.54299 7.8837C4.4728 8.95058 3.62009 10.2152 3.03224 11.6073C2.42054 13.0512 2.10665 14.6037 2.10939 16.1718C2.10687 17.7108 2.40868 19.235 2.99745 20.6569C3.58621 22.0788 4.45032 23.3703 5.54006 24.4569C6.61525 25.5321 7.86916 26.3788 9.26369 26.9677C10.7076 27.5794 12.2601 27.8933 13.8281 27.8905C15.3671 27.8931 16.8914 27.5913 18.3133 27.0025C19.7352 26.4137 21.0266 25.5496 22.1133 24.4599C23.1885 23.3847 24.0352 22.1308 24.624 20.7362C25.2357 19.2924 25.5496 17.7399 25.5469 16.1718V15.4101C25.5469 15.2812 25.4414 15.1757 25.3125 15.1757ZM20.6748 23.08C19.7676 23.9801 18.6918 24.6924 17.5088 25.176C16.3259 25.6596 15.0592 25.9051 13.7813 25.8984C11.2002 25.8866 8.77443 24.8759 6.94924 23.0507C5.11232 21.2138 4.10158 18.7704 4.10158 16.1718C4.10158 13.5732 5.11232 11.1298 6.94924 9.29288C8.54885 7.69327 10.6084 6.71769 12.832 6.49503V17.1679H23.5049C23.2793 19.4032 22.2949 21.4745 20.6748 23.08ZM27.8906 13.5468L27.8145 12.7206C27.5654 10.0224 26.3672 7.47648 24.4395 5.5546C22.5104 3.6292 19.9697 2.4376 17.2559 2.18546L16.4268 2.10929C16.2891 2.09757 16.1719 2.20304 16.1719 2.34073V13.5937C16.1719 13.7226 16.2774 13.828 16.4063 13.828L27.6563 13.7987C27.794 13.7987 27.9024 13.6816 27.8906 13.5468ZM18.1582 11.8417V4.32413C20.0037 4.7104 21.6973 5.62438 23.0332 6.95499C24.3721 8.29093 25.2891 9.99015 25.6699 11.8212L18.1582 11.8417Z" fill="#666666"/>
</svg>
