<svg width="30" height="30" viewBox="0 0 30 30" fill="none" xmlns="http://www.w3.org/2000/svg">
<path d="M13.7875 3.23738C14.1263 2.95044 14.556 2.79297 15 2.79297C15.444 2.79297 15.8737 2.95044 16.2125 3.23738L25.5875 11.1911C25.7951 11.3671 25.9619 11.5862 26.0763 11.8331C26.1907 12.0801 26.25 12.349 26.25 12.6211V24.3749C26.25 24.8722 26.0525 25.3491 25.7008 25.7007C25.3492 26.0523 24.8723 26.2499 24.375 26.2499H17.1875C16.9389 26.2499 16.7004 26.1511 16.5246 25.9753C16.3488 25.7995 16.25 25.561 16.25 25.3124V17.4999H13.75V25.3124C13.75 25.561 13.6512 25.7995 13.4754 25.9753C13.2996 26.1511 13.0611 26.2499 12.8125 26.2499H5.625C5.12772 26.2499 4.65081 26.0523 4.29917 25.7007C3.94754 25.3491 3.75 24.8722 3.75 24.3749V12.6211C3.75 12.0711 3.9925 11.5474 4.4125 11.1911L13.7875 3.23738ZM15 4.66738L5.625 12.6211V24.3749H11.875V16.5624C11.875 16.3137 11.9738 16.0753 12.1496 15.8995C12.3254 15.7237 12.5639 15.6249 12.8125 15.6249H17.1875C17.4361 15.6249 17.6746 15.7237 17.8504 15.8995C18.0262 16.0753 18.125 16.3137 18.125 16.5624V24.3749H24.375V12.6211L15 4.66738Z" fill="#666666"/>
</svg>
