<svg width="30" height="30" viewBox="0 0 30 30" fill="none" xmlns="http://www.w3.org/2000/svg">
<path d="M26.25 12.1877H25.2691C25.0336 9.62696 23.8498 7.24666 21.95 5.51361C20.0502 3.78057 17.5715 2.81982 15 2.81982C12.4285 2.81982 9.94976 3.78057 8.04997 5.51361C6.15019 7.24666 4.96642 9.62696 4.73086 12.1877H3.75C3.50136 12.1877 3.2629 12.2864 3.08709 12.4622C2.91127 12.6381 2.8125 12.8765 2.8125 13.1252C2.81662 15.3547 3.43019 17.5406 4.58685 19.4466C5.74351 21.3527 7.39925 22.9062 9.375 23.9392V24.3752C9.375 24.8724 9.57254 25.3493 9.92418 25.701C10.2758 26.0526 10.7527 26.2502 11.25 26.2502H18.75C19.2473 26.2502 19.7242 26.0526 20.0758 25.701C20.4275 25.3493 20.625 24.8724 20.625 24.3752V23.9392C22.6008 22.9062 24.2565 21.3527 25.4132 19.4466C26.5698 17.5406 27.1834 15.3547 27.1875 13.1252C27.1875 12.8765 27.0887 12.6381 26.9129 12.4622C26.7371 12.2864 26.4986 12.1877 26.25 12.1877ZM23.3836 12.1877H17.3578C18.4944 10.4824 20.214 9.25036 22.1941 8.72242C22.8416 9.77553 23.2478 10.9589 23.3836 12.1877ZM20.3297 6.5896C20.5445 6.76539 20.7504 6.95093 20.9473 7.14625C18.4516 8.02416 16.3893 9.82844 15.1875 12.1853H11.7305C12.3164 10.5428 13.3952 9.12133 14.8193 8.11497C16.2435 7.10861 17.9436 6.56648 19.6875 6.56265C19.902 6.56265 20.1164 6.5732 20.3297 6.5896ZM15 4.68765C15.7523 4.68815 16.5012 4.78944 17.2266 4.98882C15.4599 5.42707 13.8399 6.32328 12.53 7.58713C11.2201 8.85097 10.2665 10.4378 9.76523 12.1877H6.61641C6.84896 10.1262 7.83202 8.22234 9.37817 6.83915C10.9243 5.45595 12.9254 4.69012 15 4.68765ZM19.2961 22.5002C19.1326 22.5753 18.9941 22.6959 18.8973 22.8476C18.8004 22.9993 18.7493 23.1757 18.75 23.3556V24.3752H11.25V23.3556C11.2507 23.1757 11.1996 22.9993 11.1027 22.8476C11.0059 22.6959 10.8674 22.5753 10.7039 22.5002C9.05522 21.7415 7.63509 20.5625 6.58606 19.0815C5.53704 17.6005 4.89602 15.8697 4.72734 14.0627H25.2691C25.1008 15.8693 24.4603 17.5999 23.4119 19.0809C22.3635 20.5618 20.9441 21.741 19.2961 22.5002Z" fill="#666666"/>
</svg>
